<svg width="32" height="32" viewBox="0 0 32 32" fill="none" xmlns="http://www.w3.org/2000/svg">
<path d="M16 12.9999C14.3432 12.9999 13 14.3431 13 15.9999C13 17.6568 14.3432 18.9999 16 18.9999C17.6569 18.9999 19 17.6568 19 15.9999C19 14.3431 17.6569 12.9999 16 12.9999Z" fill="white"/>
<path fill-rule="evenodd" clip-rule="evenodd" d="M16 7.33325C12.5096 7.33325 9.37069 8.7351 7.10883 10.4711C5.97643 11.3402 5.04726 12.3054 4.39533 13.2448C3.75582 14.1663 3.33334 15.1353 3.33334 15.9999C3.33334 16.8645 3.75582 17.8335 4.39533 18.755C5.04726 19.6944 5.97643 20.6597 7.10883 21.5288C9.37069 23.2647 12.5096 24.6666 16 24.6666C19.4904 24.6666 22.6293 23.2647 24.8912 21.5288C26.0236 20.6597 26.9528 19.6944 27.6047 18.755C28.2442 17.8335 28.6667 16.8645 28.6667 15.9999C28.6667 15.1353 28.2442 14.1663 27.6047 13.2448C26.9528 12.3054 26.0236 11.3402 24.8912 10.4711C22.6293 8.7351 19.4904 7.33325 16 7.33325ZM11 15.9999C11 13.2385 13.2386 10.9999 16 10.9999C18.7614 10.9999 21 13.2385 21 15.9999C21 18.7613 18.7614 20.9999 16 20.9999C13.2386 20.9999 11 18.7613 11 15.9999Z" fill="white"/>
</svg>
