<svg width="61" height="44" viewBox="0 0 61 44" fill="none" xmlns="http://www.w3.org/2000/svg">
<path d="M42.6166 25.6857L39.8523 21.9693C39.0333 22.1331 38.2347 22.215 37.4566 22.215C35.4295 22.215 33.5662 21.744 31.8666 20.8021C30.1876 19.8602 28.8464 18.5498 27.8431 16.8707C26.8602 15.1712 26.3688 13.2669 26.3688 11.1579C26.3688 9.04884 26.8602 7.1548 27.8431 5.47576C28.8464 3.79672 30.1876 2.48624 31.8666 1.54434C33.5662 0.602438 35.4295 0.131487 37.4566 0.131487C39.4838 0.131487 41.3369 0.602438 43.0159 1.54434C44.7154 2.48624 46.0464 3.79672 47.0087 5.47576C47.9916 7.1548 48.483 9.04884 48.483 11.1579C48.483 13.0007 48.1042 14.69 47.3466 16.2257C46.6095 17.741 45.5754 19.0002 44.2445 20.0036L48.9745 25.6857H42.6166ZM31.7438 11.1579C31.7438 13.0622 32.2557 14.5876 33.2795 15.7343C34.3238 16.8605 35.7162 17.4236 37.4566 17.4236C39.1766 17.4236 40.5485 16.8503 41.5723 15.7036C42.6166 14.5569 43.1388 13.0417 43.1388 11.1579C43.1388 9.25361 42.6166 7.73837 41.5723 6.61218C40.5485 5.46552 39.1766 4.89219 37.4566 4.89219C35.7162 4.89219 34.3238 5.45528 33.2795 6.58147C32.2557 7.70766 31.7438 9.23313 31.7438 11.1579Z" fill="#7F9183"/>
<path d="M29.9806 18.8664V40.4277H24.7285V27.4971L19.9063 40.4277H15.6678L10.8149 27.4663V40.4277H5.56279V18.8664H11.7671L17.8178 33.7935L23.807 18.8664H29.9806ZM39.0096 31.8585C39.0096 30.077 39.3679 28.5209 40.0846 27.1899C40.8217 25.859 41.8353 24.8352 43.1253 24.1185C44.4358 23.4018 45.9305 23.0435 47.6096 23.0435C49.7596 23.0435 51.5512 23.6066 52.9846 24.7328C54.4384 25.859 55.3905 27.4459 55.841 29.4935H50.251C49.78 28.183 48.8689 27.5278 47.5174 27.5278C46.5551 27.5278 45.7872 27.9066 45.2139 28.6642C44.6405 29.4013 44.3539 30.4661 44.3539 31.8585C44.3539 33.2508 44.6405 34.3258 45.2139 35.0835C45.7872 35.8206 46.5551 36.1892 47.5174 36.1892C48.8689 36.1892 49.78 35.5339 50.251 34.2235H55.841C55.3905 36.2301 54.4384 37.8068 52.9846 38.9535C51.5308 40.1001 49.7391 40.6734 47.6096 40.6734C45.9305 40.6734 44.4358 40.3151 43.1253 39.5985C41.8353 38.8818 40.8217 37.858 40.0846 36.527C39.3679 35.1961 39.0096 33.6399 39.0096 31.8585Z" fill="#7F9183"/>
</svg>
