<svg width="32" height="32" viewBox="0 0 32 32" fill="none" xmlns="http://www.w3.org/2000/svg">
<path fill-rule="evenodd" clip-rule="evenodd" d="M19 3.33333C19 3.14924 18.8508 3 18.6667 3H9.33335C7.30831 3 5.66669 4.64162 5.66669 6.66667V25.3333C5.66669 27.3584 7.30831 29 9.33335 29H22.6667C24.6917 29 26.3334 27.3584 26.3334 25.3333V12.1961C26.3334 12.012 26.1841 11.8627 26 11.8627H20C19.4477 11.8627 19 11.415 19 10.8627V3.33333ZM16 13.3333C14.5273 13.3333 13.3334 14.5272 13.3334 16C13.3334 17.4728 14.5273 18.6667 16 18.6667C17.4728 18.6667 18.6667 17.4728 18.6667 16C18.6667 14.5272 17.4728 13.3333 16 13.3333ZM10.6667 24.6667C10.6667 22.4575 12.4575 20.6667 14.6667 20.6667H17.3334C19.5425 20.6667 21.3334 22.4575 21.3334 24.6667C21.3334 25.403 20.7364 26 20 26H12C11.2636 26 10.6667 25.403 10.6667 24.6667Z" fill="black"/>
<path d="M21 3.76551C21 3.51952 21.2569 3.36333 21.4483 3.51785C21.6095 3.648 21.7544 3.80048 21.8781 3.97273L25.8956 9.56993C25.9871 9.69736 25.888 9.86275 25.7311 9.86275H21.3334C21.1493 9.86275 21 9.71351 21 9.52941V3.76551Z" fill="black"/>
</svg>
